g Collider
v 12.33512 -4.498317E-07 1.273809
v 12.33512 -9.908586E-07 -74.27534
v 12.33512 28.19834 -74.27535
v 12.33512 28.19834 1.273812
v -12.33512 -9.908586E-07 -74.27534
v -12.33512 -4.498317E-07 1.273809
v -12.33512 28.19834 1.273812
v -12.33512 28.19834 -74.27535
v 12.33512 -4.498317E-07 1.273809
v -12.33512 -4.498317E-07 1.273809
v -12.33512 -9.908586E-07 -74.27534
v 12.33512 -9.908586E-07 -74.27534
v -12.33512 28.19834 1.273812
v -12.33512 -4.498317E-07 1.273809
v 12.33512 -4.498317E-07 1.273809
v 12.33512 28.19834 1.273812
v 12.33512 28.19834 -74.27535
v 12.33512 -9.908586E-07 -74.27534
v -12.33512 -9.908586E-07 -74.27534
v -12.33512 28.19834 -74.27535
vt 0 0
vt 1 0
vt 1 1
vt 0 1
vt 0 0
vt 1 0
vt 1 1
vt 0 1
vt 0 0
vt 1 0
vt 1 1
vt 0 1
vt 0 1
vt 0 0
vt 1 0
vt 1 1
vt 0 1
vt 0 0
vt 1 0
vt 1 1
vn -1 0 0
vn -1 0 0
vn -1 0 0
vn -1 0 0
vn 1 0 0
vn 1 0 0
vn 1 0 0
vn 1 0 0
vn 2.036996E-07 1 0
vn -2.036996E-07 1 0
vn -2.036996E-07 1 0
vn 2.036996E-07 1 0
vn -0.5999376 0 -0.8000469
vn -0.5999376 0 -0.8000467
vn 0.5999376 0 -0.8000469
vn 0.5999376 0 -0.8000469
vn 0 0 1
vn 0 0 1
vn 0 0 1
vn 0 0 1
g Collider_0
f 3/3/3 2/2/2 1/1/1
f 4/4/4 3/3/3 1/1/1
f 7/7/7 6/6/6 5/5/5
f 8/8/8 7/7/7 5/5/5
f 11/11/11 10/10/10 9/9/9
f 12/12/12 11/11/11 9/9/9
f 15/15/15 14/14/14 13/13/13
f 16/16/16 15/15/15 13/13/13
f 19/19/19 18/18/18 17/17/17
f 20/20/20 19/19/19 17/17/17
