g Fire
v -53.64519 -14.57605 -139.269
v -47.78558 -14.17407 -140.7893
v -47.65636 -9.638789 -142.0543
v -53.99971 -12.59843 -139.9368
v -47.63957 -8.882108 -142.0397
v -47.63861 -4.871664 -141.1528
v -53.58778 -7.874148 -139.3713
v -53.91448 -11.67867 -139.9353
v 53.20444 -14.57605 -139.269
v 53.55896 -12.59843 -139.9368
v 47.21561 -9.638789 -142.0543
v 47.34483 -14.17407 -140.7893
v 47.19882 -8.882108 -142.0397
v 53.47373 -11.67867 -139.9353
v 53.14703 -7.874148 -139.3713
v 47.19786 -4.871664 -141.1528
v 0 -4.197836 -160.4127
v 0 3.687268 -160.4028
v -10.18712 3.690435 -160.4028
v -15.00424 -4.239038 -160.4127
v 0 -7.376103 -160.4127
v -16.69435 -7.260861 -160.4127
v 0 -13.56567 -160.4127
v -11.64274 -13.46606 -160.4127
v 0 -19.20353 -160.4127
v -6.892894 -19.18226 -160.4127
v 10.18711 3.690435 -160.4028
v 15.00424 -4.239038 -160.4127
v 16.69435 -7.260861 -160.4127
v 11.64274 -13.46606 -160.4127
v 6.892888 -19.18225 -160.4127
vt 0.6244948 0.8579914
vt 0.9279919 0.7831588
vt 0.9914224 0.9432276
vt 0.6550034 0.9544038
vt 0.929346 0.7822521
vt 0.9857018 0.9393884
vt 0.6558532 0.9598956
vt 0.6267781 0.855373
vt 0.6244948 0.8579914
vt 0.6550034 0.9544038
vt 0.9914224 0.9432276
vt 0.9279919 0.7831588
vt 0.929346 0.7822521
vt 0.6267781 0.855373
vt 0.6558532 0.9598956
vt 0.9857018 0.9393884
vt 0.8110846 0.6538073
vt 0.8110846 0.7438357
vt 0.8923544 0.7438357
vt 0.9314247 0.6538073
vt 0.8110846 0.6289085
vt 0.9451098 0.6289085
vt 0.8110846 0.5789953
vt 0.9046914 0.5789953
vt 0.8110846 0.5332696
vt 0.8666866 0.5332696
vt 0.7298146 0.7438357
vt 0.6907443 0.6538073
vt 0.6770593 0.6289085
vt 0.7174776 0.5789953
vt 0.7554824 0.5332696
vn -0.2008623 -0.2850817 -0.9372208
vn -0.2008623 -0.2850817 -0.9372208
vn -0.2008623 -0.2850817 -0.9372208
vn -0.2008623 -0.2850817 -0.9372208
vn -0.3761205 0.184357 -0.908045
vn -0.3761205 0.184357 -0.908045
vn -0.3761206 0.184357 -0.908045
vn -0.3761206 0.184357 -0.908045
vn 0.2008624 -0.2850815 -0.9372208
vn 0.2008624 -0.2850815 -0.9372208
vn 0.2008624 -0.2850815 -0.9372208
vn 0.2008624 -0.2850815 -0.9372208
vn 0.3761205 0.1843568 -0.9080451
vn 0.3761204 0.1843568 -0.9080451
vn 0.3761204 0.1843568 -0.9080451
vn 0.3761204 0.1843568 -0.9080451
vn 0 0.0006271024 -0.9999999
vn 0 0.001255585 -0.9999993
vn -1.508498E-06 0.001255586 -0.9999993
vn 0 0.0004108396 -1
vn 0 -1.917033E-06 -1
vn 3.334213E-07 -2.083556E-06 -1
vn 0 -2.663161E-07 -1
vn 0 -2.663161E-07 -1
vn 0 -2.663161E-07 -1
vn 0 -2.663161E-07 -1
vn 1.508499E-06 0.001255585 -0.9999993
vn 0 0.0004108393 -1
vn -3.334215E-07 -2.083557E-06 -1
vn 0 -2.663161E-07 -1
vn 0 -2.663161E-07 -1
g Fire_0
f 3/3/3 2/2/2 1/1/1
f 4/4/4 3/3/3 1/1/1
f 7/7/7 6/6/6 5/5/5
f 8/8/8 7/7/7 5/5/5
f 11/11/11 10/10/10 9/9/9
f 12/12/12 11/11/11 9/9/9
f 15/15/15 14/14/14 13/13/13
f 16/16/16 15/15/15 13/13/13
f 19/19/19 18/18/18 17/17/17
f 20/20/20 19/19/19 17/17/17
f 20/20/20 17/17/17 21/21/21
f 22/22/22 20/20/20 21/21/21
f 22/22/22 21/21/21 23/23/23
f 24/24/24 22/22/22 23/23/23
f 24/24/24 23/23/23 25/25/25
f 26/26/26 24/24/24 25/25/25
f 18/18/18 27/27/27 17/17/17
f 27/27/27 28/28/28 17/17/17
f 17/17/17 28/28/28 21/21/21
f 28/28/28 29/29/29 21/21/21
f 21/21/21 29/29/29 23/23/23
f 29/29/29 30/30/30 23/23/23
f 23/23/23 30/30/30 25/25/25
f 30/30/30 31/31/31 25/25/25
