g Light
v -0.01158325 1.227363 -78.28258
v -0.01160522 1.311748 -78.29598
v 0.4344018 1.311746 -78.29598
v 0.508064 1.227361 -78.28156
v -0.5312317 1.227364 -78.28258
v -0.4576111 1.311749 -78.29598
v -0.01156372 1.142977 -78.26917
v 0.5327124 1.142976 -78.26713
v -0.01154419 1.058592 -78.25577
v 0.5081043 1.058591 -78.2527
v -0.5311914 1.058592 -78.25577
v -0.555841 1.142978 -78.26917
v -0.01152466 0.9742062 -78.24236
v 0.4344824 0.9742057 -78.23827
v -0.4575305 0.9742062 -78.24236
v 7.500492 2.550311 -79.05173
v 7.500472 2.581606 -79.08009
v 8.009998 2.581646 -79.08006
v 8.042108 2.550308 -79.0505
v 6.95888 2.55027 -79.05177
v 6.990945 2.581568 -79.08014
v 7.500516 2.519021 -79.02336
v 8.052821 2.518964 -79.02094
v 7.500535 2.487726 -78.995
v 8.04215 2.487621 -78.99138
v 6.958921 2.487685 -78.99504
v 6.948208 2.518977 -79.02341
v 7.500555 2.45643 -78.96662
v 8.010085 2.456276 -78.96182
v 6.991034 2.456391 -78.96667
v -7.483906 2.550311 -79.05173
v -7.483926 2.581606 -79.08009
v -6.974399 2.581646 -79.08006
v -6.94229 2.550308 -79.0505
v -8.025517 2.55027 -79.05177
v -7.993453 2.581568 -79.08014
v -7.483881 2.519021 -79.02336
v -6.931577 2.518964 -79.02094
v -7.483863 2.487726 -78.995
v -6.942247 2.487621 -78.99138
v -8.025477 2.487685 -78.99504
v -8.03619 2.518977 -79.02341
v -7.483842 2.45643 -78.96662
v -6.974313 2.456276 -78.96182
v -7.993364 2.456391 -78.96667
v 0.9019104 7.060589 -79.78251
v 0.9019104 7.211994 -79.78251
v 0.9019104 7.211994 -79.16171
v 0.9019104 7.060589 -79.16171
v 0.9019104 7.060589 -81.80135
v 0.9019104 7.211993 -81.80135
v 0.9019104 7.211993 -81.18054
v 0.9019104 7.060589 -81.18054
v 0.9019104 7.060588 -83.74195
v 0.9019104 7.211993 -83.74195
v 0.9019104 7.211993 -83.12115
v 0.9019104 7.060588 -83.12115
v 0.9019104 7.060587 -85.77056
v 0.9019104 7.211992 -85.77056
v 0.9019104 7.211992 -85.14976
v 0.9019104 7.060587 -85.14976
v -2.165851 7.060589 -79.78251
v -2.165851 7.211994 -79.78251
v -2.165851 7.211994 -79.16171
v -2.165851 7.060589 -79.16171
v -2.165851 7.060589 -81.80135
v -2.165851 7.211993 -81.80135
v -2.165851 7.211993 -81.18054
v -2.165851 7.060589 -81.18054
v -2.165851 7.060588 -83.74195
v -2.165851 7.211993 -83.74195
v -2.165851 7.211993 -83.12115
v -2.165851 7.060588 -83.12115
v -2.165851 7.060587 -85.77056
v -2.165851 7.211992 -85.77056
v -2.165851 7.211992 -85.14976
v -2.165851 7.060587 -85.14976
v -0.925968 7.211993 -79.16171
v -0.925968 7.211993 -79.78251
v -0.925968 7.060588 -79.78251
v -0.925968 7.060588 -79.16171
v -0.925968 7.211993 -81.18054
v -0.925968 7.211993 -81.80135
v -0.925968 7.060587 -81.80135
v -0.925968 7.060587 -81.18054
v -0.925968 7.211992 -83.12115
v -0.925968 7.211992 -83.74195
v -0.925968 7.060587 -83.74195
v -0.925968 7.060587 -83.12115
v -0.925968 7.211991 -85.14976
v -0.925968 7.211991 -85.77056
v -0.925968 7.060586 -85.77056
v -0.925968 7.060586 -85.14976
v 2.163428 7.211993 -79.16171
v 2.163428 7.211993 -79.78251
v 2.163428 7.060588 -79.78251
v 2.163428 7.060588 -79.16171
v 2.163428 7.211993 -81.18054
v 2.163428 7.211993 -81.80135
v 2.163428 7.060587 -81.80135
v 2.163428 7.060587 -81.18054
v 2.163428 7.211992 -83.12115
v 2.163428 7.211992 -83.74195
v 2.163428 7.060587 -83.74195
v 2.163428 7.060587 -83.12115
v 2.163428 7.211991 -85.14976
v 2.163428 7.211991 -85.77056
v 2.163428 7.060586 -85.77056
v 2.163428 7.060586 -85.14976
v 10.62786 0.2199357 8.505761
v 10.62788 0.2946509 8.502993
v 9.945819 0.2946585 8.5029
v 9.902841 0.2183864 8.504609
v 11.35287 0.2199466 8.505859
v 11.30995 0.2946704 8.503081
v 10.62783 0.1451849 8.508525
v 9.888499 0.1420861 8.506289
v 10.6278 0.0704784 8.511304
v 9.902781 0.06581402 8.507988
v 11.35282 0.07047082 8.511376
v 11.36716 0.145213 8.508613
v 10.62777 -0.004273538 8.514068
v 9.945702 -0.01047866 8.509663
v 11.30983 -0.004254102 8.514165
v -10.65437 0.2199357 8.505761
v -10.65435 0.2946509 8.502993
v -11.33641 0.2946585 8.5029
v -11.37939 0.2183864 8.504609
v -9.929358 0.2199466 8.505859
v -9.972283 0.2946704 8.503081
v -10.65441 0.1451849 8.508525
v -11.39373 0.1420861 8.506289
v -10.65443 0.0704784 8.511304
v -11.37945 0.06581402 8.507988
v -9.929413 0.07047082 8.511376
v -9.915074 0.145213 8.508613
v -10.65446 -0.004273538 8.514068
v -11.33653 -0.01047866 8.509663
v -9.972401 -0.004254102 8.514165
v -3.943194 4.530648 9.771454
v -3.943179 4.590907 9.803329
v -4.364862 4.590956 9.803255
v -4.391434 4.529949 9.769833
v -3.494957 4.530612 9.771532
v -3.521495 4.590882 9.803407
v -3.943215 4.470363 9.739559
v -4.4003 4.468935 9.736376
v -3.94323 4.410106 9.707694
v -4.391469 4.407933 9.702948
v -3.494991 4.410066 9.707747
v -3.486126 4.470345 9.739637
v -3.943247 4.349821 9.675795
v -4.364935 4.346927 9.669491
v -3.521568 4.349789 9.675878
v 3.954769 4.530648 9.771454
v 3.954784 4.590907 9.803329
v 3.533101 4.590956 9.803255
v 3.50653 4.529949 9.769833
v 4.403005 4.530612 9.771532
v 4.376467 4.590882 9.803407
v 3.954747 4.470363 9.739559
v 3.497662 4.468935 9.736376
v 3.954733 4.410106 9.707694
v 3.506493 4.407933 9.702948
v 4.402972 4.410066 9.707747
v 4.411837 4.470345 9.739637
v 3.954715 4.349821 9.675795
v 3.533027 4.346927 9.669491
v 4.376395 4.349789 9.675878
v 2.161117 5.640268 10.81776
v 2.097352 5.640276 10.81777
v 2.09734 5.434037 10.48096
v 2.162351 5.421043 10.45973
v 2.161117 5.859493 11.17577
v 2.097342 5.84651 11.15457
v 2.224913 5.640259 10.81775
v 2.227385 5.416709 10.45265
v 2.288674 5.640251 10.81773
v 2.292395 5.421026 10.45971
v 2.288685 5.859476 11.17575
v 2.224895 5.86381 11.18283
v 2.352472 5.640243 10.81771
v 2.357422 5.434004 10.4809
v 2.352462 5.846478 11.15452
v -2.317003 5.640268 10.81776
v -2.380768 5.640276 10.81777
v -2.38078 5.434037 10.48096
v -2.315769 5.421043 10.45973
v -2.317003 5.859493 11.17577
v -2.380778 5.84651 11.15457
v -2.253207 5.640259 10.81775
v -2.250735 5.416709 10.45265
v -2.189446 5.640251 10.81773
v -2.185725 5.421026 10.45971
v -2.189435 5.859476 11.17575
v -2.253225 5.86381 11.18283
v -2.125648 5.640243 10.81771
v -2.120698 5.434004 10.4809
v -2.125658 5.846478 11.15452
vt 0.2981496 0.8057522
vt 0.2981307 0.8574678
vt 0.51012 0.857526
vt 0.5446175 0.8063622
vt 0.05134702 0.8061766
vt 0.08725505 0.8593402
vt 0.2981614 0.7538655
vt 0.5566766 0.7542151
vt 0.2981745 0.7019809
vt 0.5449753 0.7015241
vt 0.0517304 0.7013857
vt 0.03964821 0.7535012
vt 0.2981826 0.6502783
vt 0.5091243 0.6483847
vt 0.08624613 0.6502744
vt 0.3006762 0.8065676
vt 0.3006631 0.8567265
vt 0.5154595 0.8567265
vt 0.5381043 0.8065676
vt 0.06312358 0.8065676
vt 0.08624871 0.8567265
vt 0.300687 0.7562425
vt 0.549493 0.7562425
vt 0.3006974 0.7059228
vt 0.5382363 0.7059228
vt 0.06329643 0.7059228
vt 0.0518836 0.7562425
vt 0.3007044 0.6557806
vt 0.5151147 0.6557806
vt 0.08596177 0.6557806
vt 0.3006762 0.8065676
vt 0.3006631 0.8567265
vt 0.5154595 0.8567265
vt 0.5381043 0.8065676
vt 0.06312358 0.8065676
vt 0.08624871 0.8567265
vt 0.300687 0.7562425
vt 0.549493 0.7562425
vt 0.3006974 0.7059228
vt 0.5382363 0.7059228
vt 0.06329643 0.7059228
vt 0.0518836 0.7562425
vt 0.3007044 0.6557806
vt 0.5151147 0.6557806
vt 0.08596177 0.6557806
vt 0.0351228 0.9125556
vt 0.0351228 0.97394
vt 0.2362125 0.97394
vt 0.2362125 0.9125556
vt 0.0351228 0.9125556
vt 0.0351228 0.97394
vt 0.2362125 0.97394
vt 0.2362125 0.9125556
vt 0.0351228 0.9125556
vt 0.0351228 0.97394
vt 0.2362125 0.97394
vt 0.2362125 0.9125556
vt 0.0351228 0.9125556
vt 0.0351228 0.97394
vt 0.2362125 0.97394
vt 0.2362125 0.9125556
vt 0.0351228 0.9125556
vt 0.0351228 0.97394
vt 0.2362125 0.97394
vt 0.2362125 0.9125556
vt 0.0351228 0.9125556
vt 0.0351228 0.97394
vt 0.2362125 0.97394
vt 0.2362125 0.9125556
vt 0.0351228 0.9125556
vt 0.0351228 0.97394
vt 0.2362125 0.97394
vt 0.2362125 0.9125556
vt 0.0351228 0.9125556
vt 0.0351228 0.97394
vt 0.2362125 0.97394
vt 0.2362125 0.9125556
vt 0.2362125 0.97394
vt 0.0351228 0.97394
vt 0.0351228 0.9125556
vt 0.2362125 0.9125556
vt 0.2362125 0.97394
vt 0.0351228 0.97394
vt 0.0351228 0.9125556
vt 0.2362125 0.9125556
vt 0.2362125 0.97394
vt 0.0351228 0.97394
vt 0.0351228 0.9125556
vt 0.2362125 0.9125556
vt 0.2362125 0.97394
vt 0.0351228 0.97394
vt 0.0351228 0.9125556
vt 0.2362125 0.9125556
vt 0.2362125 0.97394
vt 0.0351228 0.97394
vt 0.0351228 0.9125556
vt 0.2362125 0.9125556
vt 0.2362125 0.97394
vt 0.0351228 0.97394
vt 0.0351228 0.9125556
vt 0.2362125 0.9125556
vt 0.2362125 0.97394
vt 0.0351228 0.97394
vt 0.0351228 0.9125556
vt 0.2362125 0.9125556
vt 0.2362125 0.97394
vt 0.0351228 0.97394
vt 0.0351228 0.9125556
vt 0.2362125 0.9125556
vt 0.3006762 0.8065676
vt 0.3006631 0.8567265
vt 0.5154595 0.8567265
vt 0.5381043 0.8065676
vt 0.06312358 0.8065676
vt 0.08624871 0.8567265
vt 0.300687 0.7562425
vt 0.549493 0.7562425
vt 0.3006974 0.7059228
vt 0.5382363 0.7059228
vt 0.06329643 0.7059228
vt 0.0518836 0.7562425
vt 0.3007044 0.6557806
vt 0.5151147 0.6557806
vt 0.08596177 0.6557806
vt 0.3006762 0.8065676
vt 0.3006631 0.8567265
vt 0.5154595 0.8567265
vt 0.5381043 0.8065676
vt 0.06312358 0.8065676
vt 0.08624871 0.8567265
vt 0.300687 0.7562425
vt 0.549493 0.7562425
vt 0.3006974 0.7059228
vt 0.5382363 0.7059228
vt 0.06329643 0.7059228
vt 0.0518836 0.7562425
vt 0.3007044 0.6557806
vt 0.5151147 0.6557806
vt 0.08596177 0.6557806
vt 0.3006762 0.8065676
vt 0.3006631 0.8567265
vt 0.5154595 0.8567265
vt 0.5381043 0.8065676
vt 0.06312358 0.8065676
vt 0.08624871 0.8567265
vt 0.300687 0.7562425
vt 0.549493 0.7562425
vt 0.3006974 0.7059228
vt 0.5382363 0.7059228
vt 0.06329643 0.7059228
vt 0.0518836 0.7562425
vt 0.3007044 0.6557806
vt 0.5151147 0.6557806
vt 0.08596177 0.6557806
vt 0.3006762 0.8065676
vt 0.3006631 0.8567265
vt 0.5154595 0.8567265
vt 0.5381043 0.8065676
vt 0.06312358 0.8065676
vt 0.08624871 0.8567265
vt 0.300687 0.7562425
vt 0.549493 0.7562425
vt 0.3006974 0.7059228
vt 0.5382363 0.7059228
vt 0.06329643 0.7059228
vt 0.0518836 0.7562425
vt 0.3007044 0.6557806
vt 0.5151147 0.6557806
vt 0.08596177 0.6557806
vt 0.3006762 0.8065676
vt 0.3006631 0.8567265
vt 0.5154595 0.8567265
vt 0.5381043 0.8065676
vt 0.06312358 0.8065676
vt 0.08624871 0.8567265
vt 0.300687 0.7562425
vt 0.549493 0.7562425
vt 0.3006974 0.7059228
vt 0.5382363 0.7059228
vt 0.06329643 0.7059228
vt 0.0518836 0.7562425
vt 0.3007044 0.6557806
vt 0.5151147 0.6557806
vt 0.08596177 0.6557806
vt 0.3006762 0.8065676
vt 0.3006631 0.8567265
vt 0.5154595 0.8567265
vt 0.5381043 0.8065676
vt 0.06312358 0.8065676
vt 0.08624871 0.8567265
vt 0.300687 0.7562425
vt 0.549493 0.7562425
vt 0.3006974 0.7059228
vt 0.5382363 0.7059228
vt 0.06329643 0.7059228
vt 0.0518836 0.7562425
vt 0.3007044 0.6557806
vt 0.5151147 0.6557806
vt 0.08596177 0.6557806
vn -0.0009711991 0.159621 0.9871778
vn -0.0005220976 0.1596039 0.987181
vn -0.001043426 0.1622902 0.9867425
vn -0.002270239 0.1623262 0.9867345
vn -9.560797E-07 0.1569264 0.9876103
vn -9.382495E-07 0.1569173 0.9876117
vn -0.001893339 0.1598923 0.9871327
vn -0.003786775 0.1628665 0.9866409
vn -0.003007501 0.1607589 0.9869891
vn -0.00554773 0.1641642 0.9864174
vn -6.929047E-07 0.1569049 0.9876137
vn -9.98058E-07 0.1569167 0.9876118
vn -0.00365149 0.1613739 0.9868866
vn -0.007298493 0.1658273 0.9861279
vn 0 0.1569098 0.9876129
vn -0.0008909107 0.675197 0.7376369
vn -0.0005164043 0.6751864 0.737647
vn -0.0009175293 0.6787347 0.734383
vn -0.001909708 0.6787344 0.7343814
vn -0.0001155421 0.6716499 0.7408687
vn -0.0001155047 0.6716244 0.7408917
vn -0.001648179 0.6753224 0.7375208
vn -0.003185348 0.6790075 0.7341244
vn -0.002466734 0.6757648 0.7371132
vn -0.004544646 0.6796982 0.7334778
vn -0.0001138483 0.671601 0.740913
vn -0.0001145937 0.6716198 0.740896
vn -0.002911454 0.6761037 0.7368007
vn -0.005695146 0.6805074 0.7327191
vn -0.000114288 0.6716492 0.7408693
vn -0.0008909107 0.675197 0.7376369
vn -0.0005164043 0.6751864 0.737647
vn -0.0009175293 0.6787347 0.734383
vn -0.001909708 0.6787344 0.7343814
vn -0.0001155421 0.6716499 0.7408687
vn -0.0001155047 0.6716244 0.7408917
vn -0.001648179 0.6753224 0.7375208
vn -0.003185348 0.6790075 0.7341244
vn -0.002466734 0.6757648 0.7371132
vn -0.004544645 0.6796982 0.7334778
vn -0.0001138483 0.671601 0.740913
vn -0.0001145937 0.6716198 0.740896
vn -0.002911454 0.6761037 0.7368007
vn -0.005695145 0.6805073 0.7327192
vn -0.000114288 0.6716492 0.7408693
vn -1 0 0
vn -1 0 0
vn -1 0 0
vn -1 0 0
vn -1 0 0
vn -1 0 0
vn -1 0 0
vn -1 0 0
vn -1 0 0
vn -1 0 0
vn -1 0 0
vn -1 0 0
vn -1 0 0
vn -1 0 0
vn -1 0 0
vn -1 0 0
vn -1 0 0
vn -1 0 0
vn -1 0 0
vn -1 0 0
vn -1 0 0
vn -1 0 0
vn -1 0 0
vn -1 0 0
vn -1 0 0
vn -1 0 0
vn -1 0 0
vn -1 0 0
vn -1 0 0
vn -1 0 0
vn -1 0 0
vn -1 0 0
vn 1 0 0
vn 1 0 0
vn 1 0 0
vn 1 0 0
vn 1 0 0
vn 1 0 0
vn 1 0 0
vn 1 0 0
vn 1 0 0
vn 1 0 0
vn 1 0 0
vn 1 0 0
vn 1 0 0
vn 1 0 0
vn 1 0 0
vn 1 0 0
vn 1 0 0
vn 1 0 0
vn 1 0 0
vn 1 0 0
vn 1 0 0
vn 1 0 0
vn 1 0 0
vn 1 0 0
vn 1 0 0
vn 1 0 0
vn 1 0 0
vn 1 0 0
vn 1 0 0
vn 1 0 0
vn 1 0 0
vn 1 0 0
vn 0.0008955378 -0.03336655 -0.9994428
vn 0.0005248385 -0.03347995 -0.9994392
vn 0.0009172616 -0.0299033 -0.9995523
vn 0.001848288 -0.02973415 -0.9995561
vn 0.000129461 -0.03694134 -0.9993174
vn 0.0001325737 -0.03705468 -0.9993132
vn 0.001646497 -0.03321195 -0.9994469
vn 0.003178463 -0.02945152 -0.9995611
vn 0.002467033 -0.0328136 -0.9994585
vn 0.004608321 -0.02869796 -0.9995775
vn 0.0001146651 -0.03709915 -0.9993116
vn 0.0001190449 -0.03697099 -0.9993163
vn 0.002918625 -0.03243934 -0.9994695
vn 0.005698497 -0.02775544 -0.9995986
vn 0.0001216855 -0.03715089 -0.9993097
vn 0.0008955378 -0.03336655 -0.9994428
vn 0.0005248385 -0.03347995 -0.9994392
vn 0.0009172616 -0.0299033 -0.9995523
vn 0.001848288 -0.02973415 -0.9995561
vn 0.000129461 -0.03694135 -0.9993174
vn 0.0001325737 -0.03705468 -0.9993132
vn 0.001646497 -0.03321194 -0.9994469
vn 0.003178463 -0.02945152 -0.9995611
vn 0.002467033 -0.0328136 -0.9994585
vn 0.004608321 -0.02869796 -0.9995775
vn 0.0001146651 -0.03709914 -0.9993116
vn 0.0001190449 -0.03697098 -0.9993163
vn 0.002918625 -0.03243934 -0.9994695
vn 0.005698497 -0.02775544 -0.9995986
vn 0.0001216855 -0.03715089 -0.9993097
vn 0.00132166 0.4708187 -0.8822291
vn 0.0007758911 0.4707294 -0.8822773
vn 0.00136086 0.4738734 -0.8805919
vn 0.002648563 0.4740068 -0.8805173
vn 0.0001846688 0.4676546 -0.8839113
vn 0.0001910839 0.46758 -0.8839508
vn 0.002428329 0.4709474 -0.882158
vn 0.004696643 0.4742604 -0.8803721
vn 0.003636324 0.4713187 -0.8819555
vn 0.006903108 0.4749809 -0.8799691
vn 0.000166218 0.4675386 -0.8839726
vn 0.0001693283 0.4676265 -0.8839262
vn 0.004306821 0.4716715 -0.8817639
vn 0.008400966 0.4757605 -0.8795347
vn 0.0001771434 0.4675286 -0.8839779
vn 0.001321653 0.4708186 -0.8822291
vn 0.0007758944 0.4707294 -0.8822773
vn 0.00136086 0.4738734 -0.8805919
vn 0.002648564 0.4740068 -0.8805173
vn 0.0001846689 0.4676546 -0.8839113
vn 0.000191084 0.4675801 -0.8839507
vn 0.002428339 0.4709474 -0.8821579
vn 0.004696642 0.4742604 -0.8803721
vn 0.0036363 0.4713186 -0.8819555
vn 0.006903098 0.4749809 -0.8799691
vn 0.0001662179 0.4675386 -0.8839726
vn 0.0001693283 0.4676265 -0.8839262
vn 0.004306842 0.4716715 -0.8817638
vn 0.008400959 0.4757605 -0.8795347
vn 0.0001771433 0.4675286 -0.8839779
vn 4.040904E-06 0.8528206 -0.522204
vn -8.998692E-07 0.8528197 -0.5222056
vn -1.131792E-05 0.8528229 -0.5222003
vn -8.239945E-06 0.8528247 -0.5221974
vn 1.803049E-05 0.8528171 -0.5222098
vn 9.51563E-06 0.8528163 -0.5222108
vn 3.396555E-06 0.8528216 -0.5222024
vn 4.470608E-06 0.8528248 -0.5221971
vn -1.251742E-05 0.8528213 -0.5222027
vn -5.927757E-06 0.8528222 -0.5222012
vn -1.588373E-05 0.8528203 -0.5222045
vn 2.414369E-06 0.8528184 -0.5222076
vn -2.308147E-05 0.8528211 -0.5222034
vn -3.490633E-05 0.8528205 -0.5222043
vn -1.115707E-05 0.8528216 -0.5222023
vn 4.040904E-06 0.8528206 -0.522204
vn -8.998692E-07 0.8528197 -0.5222056
vn -1.131792E-05 0.8528229 -0.5222003
vn -8.239945E-06 0.8528247 -0.5221974
vn 1.803049E-05 0.8528171 -0.5222098
vn 9.51563E-06 0.8528163 -0.5222108
vn 3.396556E-06 0.8528216 -0.5222024
vn 4.470608E-06 0.8528248 -0.5221971
vn -1.251742E-05 0.8528213 -0.522203
vn -5.927757E-06 0.8528222 -0.5222012
vn -1.588373E-05 0.8528203 -0.5222046
vn 2.414371E-06 0.8528184 -0.5222076
vn -2.308147E-05 0.8528211 -0.5222034
vn -3.490633E-05 0.8528205 -0.5222043
vn -1.115707E-05 0.8528216 -0.5222023
g Light_0
f 3/3/3 2/2/2 1/1/1
f 4/4/4 3/3/3 1/1/1
f 1/1/1 2/2/2 5/5/5
f 2/2/2 6/6/6 5/5/5
f 4/4/4 1/1/1 7/7/7
f 8/8/8 4/4/4 7/7/7
f 8/8/8 7/7/7 9/9/9
f 10/10/10 8/8/8 9/9/9
f 9/9/9 7/7/7 11/11/11
f 7/7/7 12/12/12 11/11/11
f 1/1/1 5/5/5 12/12/12
f 7/7/7 1/1/1 12/12/12
f 10/10/10 9/9/9 13/13/13
f 14/14/14 10/10/10 13/13/13
f 9/9/9 11/11/11 15/15/15
f 13/13/13 9/9/9 15/15/15
f 18/18/18 17/17/17 16/16/16
f 19/19/19 18/18/18 16/16/16
f 16/16/16 17/17/17 20/20/20
f 17/17/17 21/21/21 20/20/20
f 19/19/19 16/16/16 22/22/22
f 23/23/23 19/19/19 22/22/22
f 23/23/23 22/22/22 24/24/24
f 25/25/25 23/23/23 24/24/24
f 24/24/24 22/22/22 26/26/26
f 22/22/22 27/27/27 26/26/26
f 16/16/16 20/20/20 27/27/27
f 22/22/22 16/16/16 27/27/27
f 25/25/25 24/24/24 28/28/28
f 29/29/29 25/25/25 28/28/28
f 24/24/24 26/26/26 30/30/30
f 28/28/28 24/24/24 30/30/30
f 33/33/33 32/32/32 31/31/31
f 34/34/34 33/33/33 31/31/31
f 31/31/31 32/32/32 35/35/35
f 32/32/32 36/36/36 35/35/35
f 34/34/34 31/31/31 37/37/37
f 38/38/38 34/34/34 37/37/37
f 38/38/38 37/37/37 39/39/39
f 40/40/40 38/38/38 39/39/39
f 39/39/39 37/37/37 41/41/41
f 37/37/37 42/42/42 41/41/41
f 31/31/31 35/35/35 42/42/42
f 37/37/37 31/31/31 42/42/42
f 40/40/40 39/39/39 43/43/43
f 44/44/44 40/40/40 43/43/43
f 39/39/39 41/41/41 45/45/45
f 43/43/43 39/39/39 45/45/45
f 48/48/48 47/47/47 46/46/46
f 49/49/49 48/48/48 46/46/46
f 52/52/52 51/51/51 50/50/50
f 53/53/53 52/52/52 50/50/50
f 56/56/56 55/55/55 54/54/54
f 57/57/57 56/56/56 54/54/54
f 60/60/60 59/59/59 58/58/58
f 61/61/61 60/60/60 58/58/58
f 64/64/64 63/63/63 62/62/62
f 65/65/65 64/64/64 62/62/62
f 68/68/68 67/67/67 66/66/66
f 69/69/69 68/68/68 66/66/66
f 72/72/72 71/71/71 70/70/70
f 73/73/73 72/72/72 70/70/70
f 76/76/76 75/75/75 74/74/74
f 77/77/77 76/76/76 74/74/74
f 80/80/80 79/79/79 78/78/78
f 81/81/81 80/80/80 78/78/78
f 84/84/84 83/83/83 82/82/82
f 85/85/85 84/84/84 82/82/82
f 88/88/88 87/87/87 86/86/86
f 89/89/89 88/88/88 86/86/86
f 92/92/92 91/91/91 90/90/90
f 93/93/93 92/92/92 90/90/90
f 96/96/96 95/95/95 94/94/94
f 97/97/97 96/96/96 94/94/94
f 100/100/100 99/99/99 98/98/98
f 101/101/101 100/100/100 98/98/98
f 104/104/104 103/103/103 102/102/102
f 105/105/105 104/104/104 102/102/102
f 108/108/108 107/107/107 106/106/106
f 109/109/109 108/108/108 106/106/106
f 112/112/112 111/111/111 110/110/110
f 113/113/113 112/112/112 110/110/110
f 110/110/110 111/111/111 114/114/114
f 111/111/111 115/115/115 114/114/114
f 113/113/113 110/110/110 116/116/116
f 117/117/117 113/113/113 116/116/116
f 117/117/117 116/116/116 118/118/118
f 119/119/119 117/117/117 118/118/118
f 118/118/118 116/116/116 120/120/120
f 116/116/116 121/121/121 120/120/120
f 110/110/110 114/114/114 121/121/121
f 116/116/116 110/110/110 121/121/121
f 119/119/119 118/118/118 122/122/122
f 123/123/123 119/119/119 122/122/122
f 118/118/118 120/120/120 124/124/124
f 122/122/122 118/118/118 124/124/124
f 127/127/127 126/126/126 125/125/125
f 128/128/128 127/127/127 125/125/125
f 125/125/125 126/126/126 129/129/129
f 126/126/126 130/130/130 129/129/129
f 128/128/128 125/125/125 131/131/131
f 132/132/132 128/128/128 131/131/131
f 132/132/132 131/131/131 133/133/133
f 134/134/134 132/132/132 133/133/133
f 133/133/133 131/131/131 135/135/135
f 131/131/131 136/136/136 135/135/135
f 125/125/125 129/129/129 136/136/136
f 131/131/131 125/125/125 136/136/136
f 134/134/134 133/133/133 137/137/137
f 138/138/138 134/134/134 137/137/137
f 133/133/133 135/135/135 139/139/139
f 137/137/137 133/133/133 139/139/139
f 142/142/142 141/141/141 140/140/140
f 143/143/143 142/142/142 140/140/140
f 140/140/140 141/141/141 144/144/144
f 141/141/141 145/145/145 144/144/144
f 143/143/143 140/140/140 146/146/146
f 147/147/147 143/143/143 146/146/146
f 147/147/147 146/146/146 148/148/148
f 149/149/149 147/147/147 148/148/148
f 148/148/148 146/146/146 150/150/150
f 146/146/146 151/151/151 150/150/150
f 140/140/140 144/144/144 151/151/151
f 146/146/146 140/140/140 151/151/151
f 149/149/149 148/148/148 152/152/152
f 153/153/153 149/149/149 152/152/152
f 148/148/148 150/150/150 154/154/154
f 152/152/152 148/148/148 154/154/154
f 157/157/157 156/156/156 155/155/155
f 158/158/158 157/157/157 155/155/155
f 155/155/155 156/156/156 159/159/159
f 156/156/156 160/160/160 159/159/159
f 158/158/158 155/155/155 161/161/161
f 162/162/162 158/158/158 161/161/161
f 162/162/162 161/161/161 163/163/163
f 164/164/164 162/162/162 163/163/163
f 163/163/163 161/161/161 165/165/165
f 161/161/161 166/166/166 165/165/165
f 155/155/155 159/159/159 166/166/166
f 161/161/161 155/155/155 166/166/166
f 164/164/164 163/163/163 167/167/167
f 168/168/168 164/164/164 167/167/167
f 163/163/163 165/165/165 169/169/169
f 167/167/167 163/163/163 169/169/169
f 172/172/172 171/171/171 170/170/170
f 173/173/173 172/172/172 170/170/170
f 170/170/170 171/171/171 174/174/174
f 171/171/171 175/175/175 174/174/174
f 173/173/173 170/170/170 176/176/176
f 177/177/177 173/173/173 176/176/176
f 177/177/177 176/176/176 178/178/178
f 179/179/179 177/177/177 178/178/178
f 178/178/178 176/176/176 180/180/180
f 176/176/176 181/181/181 180/180/180
f 170/170/170 174/174/174 181/181/181
f 176/176/176 170/170/170 181/181/181
f 179/179/179 178/178/178 182/182/182
f 183/183/183 179/179/179 182/182/182
f 178/178/178 180/180/180 184/184/184
f 182/182/182 178/178/178 184/184/184
f 187/187/187 186/186/186 185/185/185
f 188/188/188 187/187/187 185/185/185
f 185/185/185 186/186/186 189/189/189
f 186/186/186 190/190/190 189/189/189
f 188/188/188 185/185/185 191/191/191
f 192/192/192 188/188/188 191/191/191
f 192/192/192 191/191/191 193/193/193
f 194/194/194 192/192/192 193/193/193
f 193/193/193 191/191/191 195/195/195
f 191/191/191 196/196/196 195/195/195
f 185/185/185 189/189/189 196/196/196
f 191/191/191 185/185/185 196/196/196
f 194/194/194 193/193/193 197/197/197
f 198/198/198 194/194/194 197/197/197
f 193/193/193 195/195/195 199/199/199
f 197/197/197 193/193/193 199/199/199
