g LOD_RO_060_Model
v 0.5331972 0.4552231 -0.2467432
v 0.05291275 0.4552231 0.5851338
v 1.013482 0.4552231 0.5851339
v -7.629394E-08 0.4552231 0.5545846
v 0.4802844 0.4552231 -0.2772923
v -0.4802844 0.4552231 -0.2772924
v -0.4802845 0.4552231 -0.3383908
v 0.4802844 0.4552231 -0.3383908
v -1.432323E-08 0.4552231 -1.170268
v -0.05291282 0.4552231 0.5851339
v -0.5331972 0.4552231 -0.2467431
v -1.013482 0.4552231 0.5851338
v -3.712249E-08 0.2123606 0.5445247
v -0.4715723 0.2123606 -0.2722624
v 0.4715723 0.2123606 -0.2722624
v -0.4715723 0.2123606 -0.2722624
v -3.712249E-08 0.2123606 0.5445247
v 1.024488E-09 -0.4750101 1.396478E-09
v -3.712249E-08 0.2123606 0.5445247
v 0.4715723 0.2123606 -0.2722624
v 1.024488E-09 -0.4750101 1.396478E-09
v 0.4715723 0.2123606 -0.2722624
v -0.4715723 0.2123606 -0.2722624
v 1.024488E-09 -0.4750101 1.396478E-09
v -7.629394E-08 0.4761513 0.5545846
v -0.4802844 0.4761513 -0.2772924
v 0.4802844 0.4761513 -0.2772923
v 0 0.4761513 -1.170268
v 0.4802843 0.4761513 -0.3383908
v -0.4802844 0.4761513 -0.3383909
v -1.013482 0.4761513 0.5851338
v -0.5331972 0.4761513 -0.2467431
v -0.05291282 0.4761513 0.5851339
v 1.013482 0.4761513 0.5851339
v 0.05291275 0.4761513 0.5851339
v 0.5331972 0.4761513 -0.2467431
vt 0.6028566 0.4715597
vt 0.8923349 0.97309
vt 0.313258 0.9730206
vt 0.6028566 0.4715597
vt 0.8923349 0.97309
vt 0.313258 0.9730206
vt 0.6028566 0.4715597
vt 0.8923349 0.97309
vt 0.313258 0.9730206
vt 0.6028566 0.4715597
vt 0.8923349 0.97309
vt 0.313258 0.9730206
vt 0.294783 0.02720875
vt 0.03860909 0.4692276
vt 0.5494954 0.4700711
vt 0.5393993 0.494953
vt 0.03240705 0.4958471
vt 0.2869996 0.9331778
vt 0.03240705 0.4958471
vt 0.5393991 0.494953
vt 0.2869996 0.9331778
vt 0.5393991 0.494953
vt 0.03240705 0.4958471
vt 0.2869996 0.9331778
vt 0.6860415 0.5447142
vt 0.387909 0.0284762
vt 0.9840505 0.02840473
vt 0.6860415 0.5447142
vt 0.387909 0.0284762
vt 0.9840505 0.02840473
vt 0.6860415 0.5447142
vt 0.387909 0.0284762
vt 0.9840505 0.02840473
vt 0.6860415 0.5447142
vt 0.387909 0.0284762
vt 0.9840505 0.02840473
vn 0 -1 0
vn 0 -1 0
vn 0 -1 0
vn 0 -1 0
vn 0 -1 0
vn 0 -1 0
vn 0 -1 -1.222116E-07
vn 0 -1 -1.222116E-07
vn 0 -1 -1.222116E-07
vn 0 -1 0
vn 0 -1 0
vn 0 -1 0
vn 0 1 0
vn 0 1 0
vn 0 1 0
vn -0.8051648 -0.3682568 0.464862
vn -0.8051648 -0.3682568 0.464862
vn -0.8051648 -0.3682568 0.4648621
vn 0.8051648 -0.3682567 0.4648621
vn 0.8051648 -0.3682567 0.4648622
vn 0.8051648 -0.3682568 0.4648622
vn 0 -0.3682568 -0.9297242
vn 0 -0.3682568 -0.9297242
vn 0 -0.3682567 -0.9297242
vn 0 1 0
vn 0 1 0
vn 0 1 0
vn 0 1 0
vn 0 1 0
vn 0 1 0
vn 0 1 0
vn 0 1 0
vn 0 1 0
vn 0 1 0
vn 0 1 0
vn 0 1 0
g LOD_RO_060_Model_0
f 3/3/3 2/2/2 1/1/1
f 6/6/6 5/5/5 4/4/4
f 9/9/9 8/8/8 7/7/7
f 12/12/12 11/11/11 10/10/10
f 15/15/15 14/14/14 13/13/13
f 18/18/18 17/17/17 16/16/16
f 21/21/21 20/20/20 19/19/19
f 24/24/24 23/23/23 22/22/22
f 27/27/27 26/26/26 25/25/25
f 30/30/30 29/29/29 28/28/28
f 33/33/33 32/32/32 31/31/31
f 36/36/36 35/35/35 34/34/34
